<svg width="40" height="40" viewBox="0 0 40 40" fill="none" xmlns="http://www.w3.org/2000/svg">
<path d="M20 22.3333L11.8333 30.5C11.5277 30.8056 11.1388 30.9583 10.6666 30.9583C10.1944 30.9583 9.80551 30.8056 9.49996 30.5C9.1944 30.1944 9.04163 29.8056 9.04163 29.3333C9.04163 28.8611 9.1944 28.4722 9.49996 28.1667L17.6666 20L9.49996 11.8333C9.1944 11.5278 9.04163 11.1389 9.04163 10.6667C9.04163 10.1944 9.1944 9.80555 9.49996 9.5C9.80551 9.19444 10.1944 9.04166 10.6666 9.04166C11.1388 9.04166 11.5277 9.19444 11.8333 9.5L20 17.6667L28.1666 9.5C28.4722 9.19444 28.8611 9.04166 29.3333 9.04166C29.8055 9.04166 30.1944 9.19444 30.5 9.5C30.8055 9.80555 30.9583 10.1944 30.9583 10.6667C30.9583 11.1389 30.8055 11.5278 30.5 11.8333L22.3333 20L30.5 28.1667C30.8055 28.4722 30.9583 28.8611 30.9583 29.3333C30.9583 29.8056 30.8055 30.1944 30.5 30.5C30.1944 30.8056 29.8055 30.9583 29.3333 30.9583C28.8611 30.9583 28.4722 30.8056 28.1666 30.5L20 22.3333Z" fill="#014BA3"/>
</svg>
