<svg width="28" height="28" viewBox="0 0 28 28" fill="none" xmlns="http://www.w3.org/2000/svg">
<mask id="mask0_2409_417" style="mask-type:alpha" maskUnits="userSpaceOnUse" x="0" y="0" width="28" height="28">
<rect width="28" height="28" fill="#D9D9D9"/>
</mask>
<g mask="url(#mask0_2409_417)">
<path d="M15.2026 14.0003L12.2186 16.9844C12.0572 17.144 11.9765 17.3436 11.9765 17.5832C11.9765 17.8225 12.0572 18.029 12.2186 18.2027C12.3922 18.3835 12.6002 18.4721 12.8425 18.4684C13.0847 18.4647 13.2926 18.3761 13.466 18.2027L16.9302 14.7385C17.1411 14.5276 17.2466 14.2815 17.2466 14.0003C17.2466 13.7192 17.1411 13.4731 16.9302 13.2621L13.4482 9.7802C13.2746 9.60676 13.0697 9.5211 12.8334 9.52324C12.5972 9.52558 12.3922 9.61716 12.2186 9.79799C12.0572 9.97163 11.9753 10.1766 11.973 10.4128C11.9709 10.6491 12.0565 10.854 12.23 11.0277L15.2026 14.0003ZM14.0021 25.0837C12.4691 25.0837 11.0282 24.7928 9.67933 24.211C8.33047 23.6292 7.15719 22.8397 6.1595 21.8424C5.1618 20.8451 4.37187 19.6723 3.78971 18.324C3.20773 16.9757 2.91675 15.5352 2.91675 14.0024C2.91675 12.4694 3.20764 11.0284 3.78941 9.67958C4.37119 8.33071 5.16073 7.15744 6.15804 6.15974C7.15535 5.16205 8.32814 4.37212 9.67642 3.78995C11.0247 3.20798 12.4652 2.91699 13.998 2.91699C15.531 2.91699 16.972 3.20788 18.3208 3.78966C19.6697 4.37144 20.843 5.16098 21.8407 6.15828C22.8384 7.15559 23.6283 8.32838 24.2105 9.67666C24.7924 11.0249 25.0834 12.4655 25.0834 13.9983C25.0834 15.5313 24.7925 16.9722 24.2108 18.3211C23.629 19.6699 22.8394 20.8432 21.8421 21.8409C20.8448 22.8386 19.672 23.6285 18.3237 24.2107C16.9755 24.7927 15.5349 25.0837 14.0021 25.0837Z" fill="url(#paint0_linear_2409_417)"/>
</g>
<defs>
<linearGradient id="paint0_linear_2409_417" x1="24.336" y1="2.91699" x2="12.6358" y2="29.0937" gradientUnits="userSpaceOnUse">
<stop stop-color="#F0F0F0"/>
<stop offset="0.522841" stop-color="white"/>
<stop offset="1" stop-color="#F3F3F3"/>
</linearGradient>
</defs>
</svg>
