<svg width="28" height="28" viewBox="0 0 28 28" fill="none" xmlns="http://www.w3.org/2000/svg">
<mask id="mask0_2402_355" style="mask-type:alpha" maskUnits="userSpaceOnUse" x="0" y="0" width="28" height="28">
<rect width="28" height="28" fill="#D9D9D9"/>
</mask>
<g mask="url(#mask0_2402_355)">
<path d="M15.2026 13.9998L12.2186 16.9839C12.0572 17.1435 11.9765 17.3431 11.9765 17.5827C11.9765 17.822 12.0572 18.0285 12.2186 18.2022C12.3922 18.383 12.6002 18.4716 12.8425 18.4679C13.0847 18.4642 13.2926 18.3756 13.466 18.2022L16.9302 14.738C17.1411 14.5271 17.2466 14.281 17.2466 13.9998C17.2466 13.7187 17.1411 13.4726 16.9302 13.2616L13.4482 9.77971C13.2746 9.60627 13.0697 9.52062 12.8334 9.52275C12.5972 9.52509 12.3922 9.61667 12.2186 9.7975C12.0572 9.97114 11.9753 10.1761 11.973 10.4123C11.9709 10.6486 12.0565 10.8535 12.23 11.0272L15.2026 13.9998ZM14.0021 25.0832C12.4691 25.0832 11.0282 24.7923 9.67933 24.2105C8.33047 23.6287 7.15719 22.8392 6.1595 21.8419C5.1618 20.8446 4.37187 19.6718 3.78971 18.3235C3.20773 16.9752 2.91675 15.5347 2.91675 14.0019C2.91675 12.4689 3.20764 11.0279 3.78941 9.67909C4.37119 8.33023 5.16073 7.15695 6.15804 6.15925C7.15535 5.16156 8.32814 4.37163 9.67642 3.78946C11.0247 3.20749 12.4652 2.9165 13.998 2.9165C15.531 2.9165 16.972 3.20739 18.3208 3.78917C19.6697 4.37095 20.843 5.16049 21.8407 6.1578C22.8384 7.1551 23.6283 8.32789 24.2105 9.67617C24.7924 11.0244 25.0834 12.465 25.0834 13.9978C25.0834 15.5308 24.7925 16.9717 24.2108 18.3206C23.629 19.6695 22.8394 20.8427 21.8421 21.8404C20.8448 22.8381 19.672 23.628 18.3237 24.2102C16.9755 24.7922 15.5349 25.0832 14.0021 25.0832Z" fill="url(#paint0_linear_2402_355)"/>
</g>
<defs>
<linearGradient id="paint0_linear_2402_355" x1="14.0001" y1="2.9165" x2="14.0001" y2="25.0832" gradientUnits="userSpaceOnUse">
<stop stop-color="#003A7C"/>
<stop offset="0.466346" stop-color="#00499D"/>
<stop offset="1" stop-color="#003775"/>
</linearGradient>
</defs>
</svg>
