<svg width="40" height="40" viewBox="0 0 40 40" fill="none" xmlns="http://www.w3.org/2000/svg">
<mask id="mask0_6298_472" style="mask-type:alpha" maskUnits="userSpaceOnUse" x="0" y="0" width="40" height="40">
<rect width="40" height="40" fill="#014BA3"/>
</mask>
<g mask="url(#mask0_6298_472)">
<path d="M6.66667 11.6667C6.19444 11.6667 5.79861 11.5069 5.47917 11.1875C5.15972 10.8681 5 10.4722 5 10C5 9.52778 5.15972 9.13195 5.47917 8.8125C5.79861 8.49306 6.19444 8.33334 6.66667 8.33334H33.3333C33.8056 8.33334 34.2014 8.49306 34.5208 8.8125C34.8403 9.13195 35 9.52778 35 10C35 10.4722 34.8403 10.8681 34.5208 11.1875C34.2014 11.5069 33.8056 11.6667 33.3333 11.6667H6.66667ZM6.66667 31.6667C6.19444 31.6667 5.79861 31.5069 5.47917 31.1875C5.15972 30.8681 5 30.4722 5 30C5 29.5278 5.15972 29.1319 5.47917 28.8125C5.79861 28.4931 6.19444 28.3333 6.66667 28.3333H33.3333C33.8056 28.3333 34.2014 28.4931 34.5208 28.8125C34.8403 29.1319 35 29.5278 35 30C35 30.4722 34.8403 30.8681 34.5208 31.1875C34.2014 31.5069 33.8056 31.6667 33.3333 31.6667H6.66667ZM6.66667 21.6667C6.19444 21.6667 5.79861 21.5069 5.47917 21.1875C5.15972 20.8681 5 20.4722 5 20C5 19.5278 5.15972 19.1319 5.47917 18.8125C5.79861 18.4931 6.19444 18.3333 6.66667 18.3333H33.3333C33.8056 18.3333 34.2014 18.4931 34.5208 18.8125C34.8403 19.1319 35 19.5278 35 20C35 20.4722 34.8403 20.8681 34.5208 21.1875C34.2014 21.5069 33.8056 21.6667 33.3333 21.6667H6.66667Z" fill="#014BA3"/>
</g>
</svg>
